<svg width="800" height="600" viewBox="0 0 800 600" fill="none" xmlns="http://www.w3.org/2000/svg">
  <rect width="800" height="600" rx="20" fill="#E8F1FF"/>
  <circle cx="120" cy="120" r="80" fill="white" fill-opacity="0.4"/>
  <circle cx="750" cy="550" r="150" fill="#D0E2FF" fill-opacity="0.6"/>

  <rect x="435" y="185" width="230" height="310" rx="30" fill="#253351"/>
  <rect x="458" y="215" width="184" height="250" rx="15" fill="white"/>
  
  <rect x="520" y="310" rx="12" width="70" height="70" fill="#E8F1FF" stroke="#D0E2FF" stroke-width="2"/>
  <path d="M540 345H570M555 330V360" stroke="#253351" stroke-width="8" stroke-linecap="round"/>
  <rect x="525" y="430" width="55" height="12" rx="6" fill="#5C677D"/>

  <rect x="300" y="335" width="205" height="160" rx="25" fill="#F4F8FF" stroke="#D0E2FF" stroke-width="3"/>
  <rect x="325" y="380" width="50" height="45" rx="8" fill="#3172F6"/>
  <rect x="390" y="380" width="85" height="15" rx="7" fill="#5C677D"/>
  <rect x="390" y="410" width="60" height="15" rx="7" fill="#8FA2C1"/>

  <circle cx="280" cy="300" r="62" fill="#3172F6"/>
  <path d="M245 310L270 335L315 265" stroke="white" stroke-width="14" stroke-linecap="round" stroke-linejoin="round"/>
</svg>
