<svg xmlns="http://www.w3.org/2000/svg" viewBox="0 0 800 600" role="img" aria-labelledby="title desc">
  <title id="title">No subscription fees illustration</title>
  <desc id="desc">A wallet card with a one time payment badge beside a WIFIGATE controller.</desc>
  <defs>
    <linearGradient id="bg" x1="0" y1="0" x2="1" y2="1">
      <stop offset="0%" stop-color="#eef4ff"/>
      <stop offset="100%" stop-color="#dbe8ff"/>
    </linearGradient>
    <linearGradient id="card" x1="0" y1="0" x2="1" y2="1">
      <stop offset="0%" stop-color="#ffffff"/>
      <stop offset="100%" stop-color="#e9f0ff"/>
    </linearGradient>
  </defs>
  <rect width="800" height="600" rx="36" fill="url(#bg)"/>
  <circle cx="120" cy="90" r="72" fill="#ffffff" opacity=".55"/>
  <circle cx="700" cy="520" r="96" fill="#bfd5ff" opacity=".45"/>
  <rect x="435" y="140" width="235" height="270" rx="26" fill="#1f2e52"/>
  <rect x="458" y="163" width="189" height="224" rx="18" fill="#f8fbff"/>
  <rect x="520" y="235" width="68" height="68" rx="18" fill="#ffffff" stroke="#d9e6ff" stroke-width="6"/>
  <path d="M535 275h38" stroke="#1c2433" stroke-width="10" stroke-linecap="round"/>
  <path d="M554 256v38" stroke="#1c2433" stroke-width="10" stroke-linecap="round"/>
  <rect x="525" y="324" width="58" height="10" rx="5" fill="#1c2433" opacity=".75"/>
  <rect x="300" y="255" width="205" height="120" rx="28" fill="url(#card)" stroke="#c9d9ff" stroke-width="4"/>
  <rect x="326" y="285" width="50" height="36" rx="9" fill="#2f6df6"/>
  <rect x="392" y="285" width="84" height="12" rx="6" fill="#5e7198"/>
  <rect x="392" y="309" width="64" height="12" rx="6" fill="#9aa8c7"/>
  <circle cx="282" cy="231" r="62" fill="#2f6df6"/>
  <path d="M255 231l18 18 39-39" fill="none" stroke="#fff" stroke-width="14" stroke-linecap="round" stroke-linejoin="round"/>
  <text x="282" y="240" text-anchor="middle" font-size="22" font-family="Arial, sans-serif" fill="#fff" font-weight="700">1x</text>
</svg>
