<svg xmlns="http://www.w3.org/2000/svg" viewBox="0 0 800 600" role="img" aria-labelledby="title desc">
  <title id="title">Advanced security architecture illustration</title>
  <desc id="desc">A shield and secure lock over a processor board representing encrypted local protection.</desc>
  <defs>
    <linearGradient id="bg" x1="0" y1="0" x2="1" y2="1">
      <stop offset="0%" stop-color="#eaf1ff"/>
      <stop offset="100%" stop-color="#cedcff"/>
    </linearGradient>
    <linearGradient id="panel" x1="0" y1="0" x2="1" y2="1">
      <stop offset="0%" stop-color="#19284c"/>
      <stop offset="100%" stop-color="#2f4e91"/>
    </linearGradient>
  </defs>
  <rect width="800" height="600" rx="36" fill="url(#bg)"/>
  <rect x="120" y="150" width="560" height="300" rx="34" fill="url(#panel)"/>
  <rect x="240" y="210" width="170" height="170" rx="24" fill="#eff5ff" opacity=".95"/>
  <rect x="284" y="254" width="82" height="82" rx="18" fill="#2f6df6"/>
  <g fill="#9cb5ef">
    <rect x="202" y="250" width="24" height="18" rx="6"/>
    <rect x="202" y="280" width="24" height="18" rx="6"/>
    <rect x="202" y="310" width="24" height="18" rx="6"/>
    <rect x="424" y="250" width="24" height="18" rx="6"/>
    <rect x="424" y="280" width="24" height="18" rx="6"/>
    <rect x="424" y="310" width="24" height="18" rx="6"/>
    <rect x="286" y="172" width="18" height="24" rx="6"/>
    <rect x="316" y="172" width="18" height="24" rx="6"/>
    <rect x="346" y="172" width="18" height="24" rx="6"/>
    <rect x="286" y="394" width="18" height="24" rx="6"/>
    <rect x="316" y="394" width="18" height="24" rx="6"/>
    <rect x="346" y="394" width="18" height="24" rx="6"/>
  </g>
  <path d="M562 214l86 33v69c0 73-53 132-129 154-76-22-129-81-129-154v-69l86-33 43 20 43-20z" fill="#f7fbff" opacity=".96"/>
  <path d="M519 277c-26 0-47 21-47 47v57h94v-57c0-26-21-47-47-47zm0 28c11 0 20 9 20 20v12h-40v-12c0-11 9-20 20-20z" fill="#2f6df6"/>
  <circle cx="519" cy="353" r="10" fill="#fff"/>
  <path d="M519 363v20" stroke="#fff" stroke-width="8" stroke-linecap="round"/>
</svg>
