<svg xmlns="http://www.w3.org/2000/svg" viewBox="0 0 800 600" role="img" aria-labelledby="title desc">
  <title id="title">User management illustration</title>
  <desc id="desc">A dashboard with user rows and administrator roles.</desc>
  <defs>
    <linearGradient id="bg" x1="0" y1="0" x2="1" y2="1">
      <stop offset="0%" stop-color="#eff5ff"/>
      <stop offset="100%" stop-color="#d8e6ff"/>
    </linearGradient>
  </defs>
  <rect width="800" height="600" rx="36" fill="url(#bg)"/>
  <rect x="110" y="120" width="580" height="360" rx="30" fill="#ffffff" stroke="#d2def6" stroke-width="4"/>
  <rect x="110" y="120" width="580" height="72" rx="30" fill="#1f2e52"/>
  <circle cx="158" cy="156" r="10" fill="#ff6b6b"/>
  <circle cx="188" cy="156" r="10" fill="#ffd166"/>
  <circle cx="218" cy="156" r="10" fill="#4dd599"/>
  <g transform="translate(150 220)">
    <circle cx="34" cy="34" r="24" fill="#dce8ff"/>
    <rect x="72" y="20" width="210" height="16" rx="8" fill="#40557e"/>
    <rect x="72" y="48" width="140" height="14" rx="7" fill="#9db0d4"/>
    <rect x="360" y="22" width="110" height="28" rx="14" fill="#2f6df6"/>
    <text x="415" y="41" text-anchor="middle" font-size="16" font-family="Arial, sans-serif" fill="#fff" font-weight="700">ADMIN</text>
  </g>
  <g transform="translate(150 308)">
    <circle cx="34" cy="34" r="24" fill="#dce8ff"/>
    <rect x="72" y="20" width="210" height="16" rx="8" fill="#40557e"/>
    <rect x="72" y="48" width="140" height="14" rx="7" fill="#9db0d4"/>
    <rect x="360" y="22" width="110" height="28" rx="14" fill="#e8eefb"/>
    <text x="415" y="41" text-anchor="middle" font-size="16" font-family="Arial, sans-serif" fill="#5a6e97" font-weight="700">USER</text>
  </g>
  <g transform="translate(150 396)">
    <circle cx="34" cy="34" r="24" fill="#dce8ff"/>
    <rect x="72" y="20" width="210" height="16" rx="8" fill="#40557e"/>
    <rect x="72" y="48" width="140" height="14" rx="7" fill="#9db0d4"/>
    <rect x="360" y="22" width="110" height="28" rx="14" fill="#e8eefb"/>
    <text x="415" y="41" text-anchor="middle" font-size="16" font-family="Arial, sans-serif" fill="#5a6e97" font-weight="700">USER</text>
  </g>
</svg>
